<svg xmlns="http://www.w3.org/2000/svg" xmlns:xlink="http://www.w3.org/1999/xlink" xmlns:fi="http://pattern.flaticon.com/" x="0" y="0" width="2080" height="1040" viewBox="0 0 2080 1040"><rect x="0px" y="0px" width="100%" height="100%" opacity="0" fill="#000000"/><defs><g transform="matrix(0.10736855304590458 0.02901852768279571 -0.02901852768279571 0.10736855304590458 313.90834747447053 15.09955962921864)" id="L1_3"><path d="M467.677,24.755h-313.37c-4.142,0-7.5,3.357-7.5,7.5c0,4.143,3.358,7.5,7.5,7.5h313.37    c16.168,0,29.321,13.153,29.321,29.321v254.807H285.997v-209.74l48.519-16.875c3.912-1.361,5.98-5.636,4.62-9.548l-10.737-30.87    c-0.654-1.879-2.027-3.421-3.817-4.287c-1.791-0.867-3.851-0.986-5.73-0.333L50.876,145.435c-1.879,0.653-3.421,2.026-4.287,3.817    c-0.867,1.79-0.986,3.852-0.333,5.73l10.736,30.869c1.077,3.097,3.98,5.038,7.084,5.038c0.817,0,1.648-0.135,2.464-0.418    l32.852-11.426v144.837H15V69.076c0-16.168,13.153-29.321,29.321-29.321h79.368c4.142,0,7.5-3.357,7.5-7.5    c0-4.143-3.358-7.5-7.5-7.5H44.321C19.882,24.755,0,44.638,0,69.076v314.87c0,13.119,10.673,23.792,23.792,23.792h164.513    c-4.905,16.637-14.717,37.086-34.353,51.987c-5.323,4.039-7.385,10.743-5.253,17.078c2.134,6.343,7.837,10.441,14.527,10.441    h47.13c4.142,0,7.5-3.357,7.5-7.5s-3.358-7.5-7.5-7.5h-47.13c-0.132,0-0.187-0.02-0.188-0.02c-0.09-0.063-0.181-0.325-0.154-0.423    c0-0.001,0.03-0.048,0.136-0.128c24.526-18.613,35.734-44.324,40.854-63.937h104.249c5.199,19.957,16.465,45.427,40.856,63.937    c0.097,0.073,0.13,0.119,0.132,0.119c0.03,0.108-0.061,0.37-0.146,0.43c-0.001,0-0.054,0.021-0.192,0.021H240.974    c-4.142,0-7.5,3.357-7.5,7.5s3.358,7.5,7.5,7.5h107.798c6.691,0,12.393-4.099,14.527-10.441    c2.131-6.335,0.069-13.039-5.253-17.078c-19.549-14.835-29.399-35.122-34.359-51.987h69.336c4.142,0,7.5-3.357,7.5-7.5    s-3.358-7.5-7.5-7.5H23.792c-4.848,0-8.792-3.944-8.792-8.792v-45.063h481.998v45.063c0,4.848-3.944,8.792-8.792,8.792H423.64    c-4.142,0-7.5,3.357-7.5,7.5s3.358,7.5,7.5,7.5h64.566c13.119,0,23.792-10.673,23.792-23.792V69.076    C511.998,44.638,492.116,24.755,467.677,24.755z M68.697,173.84l-5.81-16.701l253.808-88.278l5.81,16.702L68.697,173.84z     M219.888,323.882h-54.385v-68.754h54.385V323.882z M270.997,323.882h-36.109v-76.254c0-4.143-3.358-7.5-7.5-7.5h-69.385    c-4.142,0-7.5,3.357-7.5,7.5v76.254h-36.111c0,0,0-150.054,0-150.054l156.605-54.469V323.882z" fill="#ffffff"/><path d="M255.999,347.137c-10.296,0-18.673,8.377-18.673,18.674c0,10.296,8.377,18.673,18.673,18.673s18.673-8.377,18.673-18.673    C274.672,355.514,266.295,347.137,255.999,347.137z M255.999,369.483c-2.025,0-3.673-1.647-3.673-3.673s1.648-3.674,3.673-3.674    c2.025,0,3.673,1.648,3.673,3.674C259.672,367.835,258.024,369.483,255.999,369.483z" fill="#ffffff"/><path d="M353.926,214.321c-4.142,0-7.5,3.357-7.5,7.5v1.526c0,4.143,3.358,7.5,7.5,7.5c4.142,0,7.5-3.357,7.5-7.5v-1.526    C361.426,217.678,358.068,214.321,353.926,214.321z" fill="#ffffff"/><path d="M377.562,214.321c-4.142,0-7.5,3.357-7.5,7.5v1.526c0,4.143,3.358,7.5,7.5,7.5c4.142,0,7.5-3.358,7.5-7.5v-1.526    C385.062,217.678,381.704,214.321,377.562,214.321z" fill="#ffffff"/><path d="M389.636,243.535h-35.54c-4.142,0-7.5,3.357-7.5,7.5s3.358,7.5,7.5,7.5h35.54c4.142,0,7.5-3.357,7.5-7.5    S393.778,243.535,389.636,243.535z" fill="#ffffff"/><path d="M438.817,265.939h-84.721c-4.142,0-7.5,3.357-7.5,7.5s3.358,7.5,7.5,7.5h84.721c4.142,0,7.5-3.357,7.5-7.5    S442.959,265.939,438.817,265.939z" fill="#ffffff"/><path d="M210.894,172.408h-36.395c-4.142,0-7.5,3.357-7.5,7.5v36.395c0,4.142,3.357,7.5,7.5,7.5h36.395c4.142,0,7.5-3.357,7.5-7.5    v-36.395C218.394,175.764,215.036,172.408,210.894,172.408z M203.394,208.803h-21.395v-21.395h21.395V208.803z" fill="#ffffff"/><path d="M368.818,138.824c-12.347,0-22.392,10.045-22.392,22.392s10.045,22.392,22.392,22.392s22.392-10.045,22.392-22.392    S381.165,138.824,368.818,138.824z M368.818,168.608c-4.076,0-7.392-3.315-7.392-7.392c0-4.077,3.316-7.392,7.392-7.392    s7.392,3.315,7.392,7.392C376.21,165.293,372.894,168.608,368.818,168.608z" fill="#ffffff"/></g><g transform="matrix(0.03906257450580597 0 0 0.03906257450580597 166 165.00000008583083)" id="L1_4"><path d="M159.613,29.658H17.06C7.653,29.658,0,37.311,0,46.718v169.634c0,4.142,3.358,7.5,7.5,7.5s7.5-3.358,7.5-7.5V46.718    c0-1.136,0.924-2.06,2.06-2.06h142.553c1.136,0,2.06,0.924,2.06,2.06v390.689c0,1.136-0.924,2.06-2.06,2.06H17.06    c-1.136,0-2.06-0.924-2.06-2.06V246.97c0-4.142-3.358-7.5-7.5-7.5s-7.5,3.358-7.5,7.5v190.438c0,9.407,7.653,17.06,17.06,17.06    h142.553c9.407,0,17.06-7.653,17.06-17.06V46.718C176.673,37.311,169.02,29.658,159.613,29.658z" fill="#ffffff"/><path d="M320.414,324.24h-96.107c-9.407,0-17.06,7.653-17.06,17.06v96.107c0,9.407,7.653,17.06,17.06,17.06h53.384    c4.143,0,7.5-3.358,7.5-7.5c0-4.142-3.357-7.5-7.5-7.5h-53.384c-1.136,0-2.06-0.924-2.06-2.06V341.3c0-1.136,0.924-2.06,2.06-2.06    h96.107c1.136,0,2.06,0.924,2.06,2.06v96.107c0,1.136-0.924,2.06-2.06,2.06h-12.105c-4.143,0-7.5,3.358-7.5,7.5    c0,4.142,3.357,7.5,7.5,7.5h12.105c9.406,0,17.06-7.653,17.06-17.06V341.3C337.474,331.894,329.82,324.24,320.414,324.24z" fill="#ffffff"/><path d="M470.896,324.241h-6.217v-14.828c28.513-19.118,47.32-51.638,47.32-88.471c0-33.402-15.47-63.255-39.616-82.785    c8.711-0.758,15.572-8.08,15.572-16.984V46.718c0-9.407-7.653-17.06-17.06-17.06H291.643c-4.143,0-7.5,3.358-7.5,7.5    c0,4.142,3.357,7.5,7.5,7.5h179.254c1.136,0,2.06,0.924,2.06,2.06v74.455c0,1.136-0.924,2.06-2.06,2.06h-21.834    c-0.374,0-0.738,0.036-1.096,0.089c-13.002-5.67-27.344-8.824-42.41-8.824c-15.072,0-29.418,3.155-42.423,8.829    c-0.37-0.056-0.746-0.094-1.132-0.094H226.45c-1.136,0-2.06-0.924-2.06-2.06V46.718c0-1.136,0.924-2.06,2.06-2.06h34.575    c4.143,0,7.5-3.358,7.5-7.5c0-4.142-3.357-7.5-7.5-7.5H226.45c-9.407,0-17.06,7.653-17.06,17.06v74.455    c0,9.407,7.653,17.06,17.06,17.06h112.183c-8.761,7.102-16.377,15.562-22.52,25.061H216.89c-4.142,0-7.5,3.358-7.5,7.5    c0,4.142,3.358,7.5,7.5,7.5h91.149c-3.567,8.123-6.148,16.772-7.589,25.797h-83.56c-4.142,0-7.5,3.358-7.5,7.5    c0,4.142,3.358,7.5,7.5,7.5h82.244c-0.011,0.617-0.024,1.233-0.024,1.852c0,8.231,0.94,16.246,2.716,23.945H216.89    c-4.142,0-7.5,3.358-7.5,7.5c0,4.142,3.358,7.5,7.5,7.5h89.598c3.673,9.311,8.628,17.979,14.637,25.797H216.89    c-4.142,0-7.5,3.358-7.5,7.5c0,4.142,3.358,7.5,7.5,7.5h118.238c3.564,3.152,7.338,6.071,11.302,8.729v158.669    c0,5.596,3.151,10.541,8.224,12.904c1.95,0.91,4.01,1.355,6.051,1.355c3.266,0,6.481-1.142,9.117-3.356l35.733-30.002    l35.732,30.003c4.284,3.597,10.098,4.363,15.169,2c5.072-2.364,8.223-7.309,8.223-12.904v-13.614h6.217    c9.406,0,17.06-7.653,17.06-17.06v-96.107C487.956,331.894,480.303,324.241,470.896,324.241z M449.679,466.445l-39.3-32.999    c-2.79-2.34-6.857-2.342-9.646,0l-39.303,32.999V317.801c13.45,6.152,28.394,9.586,44.125,9.586    c15.731,0,30.674-3.434,44.124-9.585V466.445z M405.556,312.387c-50.423,0-91.445-41.022-91.445-91.445    c-0.001-50.422,41.022-91.444,91.445-91.444c50.423,0,91.444,41.022,91.444,91.444C497,271.365,455.979,312.387,405.556,312.387z     M472.956,437.407c0,1.136-0.924,2.06-2.06,2.06h-6.217V339.241h6.217c1.136,0,2.06,0.924,2.06,2.06V437.407z" fill="#ffffff"/><path d="M311.202,76.783c-4.143,0-7.5,3.358-7.5,7.5v1.16c0,4.142,3.357,7.5,7.5,7.5s7.5-3.358,7.5-7.5v-1.16    C318.702,80.141,315.345,76.783,311.202,76.783z" fill="#ffffff"/><path d="M348.673,76.783c-4.143,0-7.5,3.358-7.5,7.5v1.16c0,4.142,3.357,7.5,7.5,7.5s7.5-3.358,7.5-7.5v-1.16    C356.173,80.141,352.816,76.783,348.673,76.783z" fill="#ffffff"/><path d="M386.144,76.783c-4.143,0-7.5,3.358-7.5,7.5v1.16c0,4.142,3.357,7.5,7.5,7.5s7.5-3.358,7.5-7.5v-1.16    C393.644,80.141,390.287,76.783,386.144,76.783z" fill="#ffffff"/><path d="M69.186,94.629L55,80.442c-2.929-2.929-7.678-2.929-10.606,0c-2.929,2.929-2.929,7.678,0,10.606l14.186,14.187    c1.464,1.464,3.384,2.197,5.303,2.197s3.839-0.732,5.303-2.197C72.115,102.306,72.115,97.557,69.186,94.629z" fill="#ffffff"/><path d="M69.186,132.524L55,118.336c-2.929-2.929-7.678-2.929-10.606,0c-2.93,2.929-2.93,7.678-0.001,10.607L58.58,143.13    c1.464,1.464,3.384,2.197,5.303,2.197s3.839-0.732,5.303-2.197C72.115,140.201,72.115,135.452,69.186,132.524z" fill="#ffffff"/><path d="M69.186,170.419L55,156.231c-2.929-2.93-7.678-2.929-10.606,0c-2.93,2.928-2.93,7.677-0.001,10.606l14.187,14.188    c1.464,1.465,3.384,2.197,5.303,2.197s3.839-0.732,5.303-2.197C72.115,178.096,72.115,173.348,69.186,170.419z" fill="#ffffff"/><path d="M121.8,401.888H49.696c-4.142,0-7.5,3.358-7.5,7.5c0,4.142,3.358,7.5,7.5,7.5H121.8c4.142,0,7.5-3.358,7.5-7.5    C129.3,405.246,125.942,401.888,121.8,401.888z" fill="#ffffff"/><path d="M405.556,146.359c-41.126,0-74.585,33.458-74.585,74.584s33.459,74.584,74.585,74.584    c41.126,0,74.584-33.458,74.584-74.584S446.682,146.359,405.556,146.359z M405.556,280.526c-32.855,0-59.585-26.729-59.585-59.584    c0-32.854,26.729-59.584,59.585-59.584c32.854,0,59.584,26.729,59.584,59.584C465.14,253.797,438.411,280.526,405.556,280.526z" fill="#ffffff"/><path d="M418.951,249.277h-5.896v-67.252c0-3.033-1.827-5.768-4.63-6.929c-2.803-1.16-6.028-0.519-8.173,1.626l-14.312,14.311    c-2.93,2.929-2.93,7.677-0.001,10.606c2.931,2.93,7.68,2.93,10.608,0l1.509-1.508v49.146h-5.681c-4.143,0-7.5,3.358-7.5,7.5    c0,4.142,3.357,7.5,7.5,7.5h26.576c4.143,0,7.5-3.358,7.5-7.5C426.451,252.635,423.094,249.277,418.951,249.277z" fill="#ffffff"/><path d="M99.6,371.703h-4.792v-67.252c0.001-3.033-1.826-5.768-4.629-6.929c-2.804-1.161-6.029-0.52-8.173,1.626l-14.312,14.311    c-2.929,2.929-2.929,7.677,0,10.606c2.929,2.929,7.678,2.929,10.606,0l1.508-1.508v49.146h-5.681c-4.142,0-7.5,3.358-7.5,7.5    c0,4.142,3.358,7.5,7.5,7.5H99.6c4.142,0,7.5-3.358,7.5-7.5C107.1,375.061,103.742,371.703,99.6,371.703z" fill="#ffffff"/></g><g transform="matrix(-0.0390625 0 0 0.0390625 10 165)" id="L1_5"><path d="M484.322,64.74H308.698c-15.261,0-27.677,12.416-27.677,27.678v251.273c0,4.143,3.357,7.5,7.5,7.5s7.5-3.357,7.5-7.5    V171.87H497v211.304H296.021v-8.865c0-4.143-3.357-7.5-7.5-7.5s-7.5,3.357-7.5,7.5v45.273c0,15.262,12.416,27.678,27.677,27.678    h175.624c15.262,0,27.678-12.416,27.678-27.678V92.418C512,77.156,499.584,64.74,484.322,64.74z M497,419.582    c0,6.99-5.687,12.678-12.678,12.678H308.698c-6.99,0-12.677-5.688-12.677-12.678v-21.408H497V419.582z M497,156.87H296.021    v-28.682H497V156.87z M497,113.189H296.021V92.418c0-6.99,5.687-12.678,12.677-12.678h175.624c6.99,0,12.678,5.688,12.678,12.678    V113.189z" fill="#ffffff"/><path d="M404.492,88.965h-56.15c-4.143,0-7.5,3.357-7.5,7.5c0,4.143,3.357,7.5,7.5,7.5h56.15c4.143,0,7.5-3.357,7.5-7.5    C411.992,92.322,408.635,88.965,404.492,88.965z" fill="#ffffff"/><path d="M448.778,88.403c-4.143,0-7.5,3.357-7.5,7.5v1.123c0,4.143,3.358,7.5,7.5,7.5c4.143,0,7.5-3.357,7.5-7.5v-1.123    C456.278,91.76,452.921,88.403,448.778,88.403z" fill="#ffffff"/><path d="M429.253,88.403c-4.143,0-7.5,3.357-7.5,7.5v1.123c0,4.143,3.357,7.5,7.5,7.5s7.5-3.357,7.5-7.5v-1.123    C436.753,91.76,433.396,88.403,429.253,88.403z" fill="#ffffff"/><path d="M412.396,407.717h-31.77c-4.143,0-7.5,3.357-7.5,7.5s3.357,7.5,7.5,7.5h31.77c4.143,0,7.5-3.357,7.5-7.5    S416.538,407.717,412.396,407.717z" fill="#ffffff"/><path d="M203.302,64.74H27.677C12.416,64.74,0,77.156,0,92.418v159.273c0,4.143,3.358,7.5,7.5,7.5s7.5-3.357,7.5-7.5V128.188    h200.979v254.985H15V282.309c0-4.143-3.358-7.5-7.5-7.5s-7.5,3.357-7.5,7.5v137.273c0,15.262,12.416,27.678,27.677,27.678h175.625    c15.261,0,27.677-12.416,27.677-27.678V92.418C230.979,77.156,218.563,64.74,203.302,64.74z M215.979,419.582    c0,6.99-5.687,12.678-12.677,12.678H27.677c-6.99,0-12.677-5.688-12.677-12.678v-21.408h200.979V419.582z M215.979,113.189H15    v-0.001v-20.77c0-6.99,5.687-12.678,12.677-12.678h175.625c6.99,0,12.677,5.688,12.677,12.678V113.189z" fill="#ffffff"/><path d="M123.471,88.965H67.32c-4.142,0-7.5,3.357-7.5,7.5c0,4.143,3.358,7.5,7.5,7.5h56.15c4.142,0,7.5-3.357,7.5-7.5    C130.97,92.322,127.613,88.965,123.471,88.965z" fill="#ffffff"/><path d="M167.757,88.403c-4.142,0-7.5,3.357-7.5,7.5v1.123c0,4.143,3.358,7.5,7.5,7.5c4.142,0,7.5-3.357,7.5-7.5v-1.123    C175.257,91.761,171.899,88.403,167.757,88.403z" fill="#ffffff"/><path d="M148.232,88.403c-4.142,0-7.5,3.357-7.5,7.5v1.123c0,4.143,3.358,7.5,7.5,7.5c4.142,0,7.5-3.357,7.5-7.5v-1.123    C155.732,91.761,152.374,88.403,148.232,88.403z" fill="#ffffff"/><path d="M131.375,407.717h-31.77c-4.142,0-7.5,3.357-7.5,7.5s3.358,7.5,7.5,7.5h31.77c4.142,0,7.5-3.357,7.5-7.5    S135.517,407.717,131.375,407.717z" fill="#ffffff"/><path d="M197.464,173.266h-25.155c-4.142,0-7.5,3.357-7.5,7.5s3.358,7.5,7.5,7.5h17.655v34.185H41.015v-34.185h100.676    c4.142,0,7.5-3.357,7.5-7.5s-3.358-7.5-7.5-7.5H33.515c-4.142,0-7.5,3.357-7.5,7.5v49.185c0,4.143,3.358,7.5,7.5,7.5h163.949    c4.142,0,7.5-3.357,7.5-7.5v-49.185C204.964,176.623,201.606,173.266,197.464,173.266z" fill="#ffffff"/><path d="M95.396,248.5h-59.49c-4.142,0-7.5,3.357-7.5,7.5s3.358,7.5,7.5,7.5h59.489c4.142,0,7.5-3.357,7.5-7.5    S99.538,248.5,95.396,248.5z" fill="#ffffff"/><path d="M95.396,274.55h-59.49c-4.142,0-7.5,3.357-7.5,7.5s3.358,7.5,7.5,7.5h59.489c4.142,0,7.5-3.357,7.5-7.5    S99.538,274.55,95.396,274.55z" fill="#ffffff"/><path d="M95.396,300.6h-59.49c-4.142,0-7.5,3.357-7.5,7.5s3.358,7.5,7.5,7.5h59.489c4.142,0,7.5-3.357,7.5-7.5    S99.538,300.6,95.396,300.6z" fill="#ffffff"/><path d="M95.396,326.65h-59.49c-4.142,0-7.5,3.357-7.5,7.5s3.358,7.5,7.5,7.5h59.489c4.142,0,7.5-3.357,7.5-7.5    S99.538,326.65,95.396,326.65z" fill="#ffffff"/><path d="M95.396,352.7h-59.49c-4.142,0-7.5,3.357-7.5,7.5s3.358,7.5,7.5,7.5h59.489c4.142,0,7.5-3.357,7.5-7.5    S99.538,352.7,95.396,352.7z" fill="#ffffff"/><path d="M95.396,145.258h-59.49c-4.142,0-7.5,3.357-7.5,7.5s3.358,7.5,7.5,7.5h59.49c4.142,0,7.5-3.357,7.5-7.5    S99.538,145.258,95.396,145.258z" fill="#ffffff"/><path d="M197.502,248.5h-74.031c-4.142,0-7.5,3.357-7.5,7.5s3.358,7.5,7.5,7.5h74.031c4.142,0,7.5-3.357,7.5-7.5    S201.644,248.5,197.502,248.5z" fill="#ffffff"/><path d="M197.502,274.55h-74.031c-4.142,0-7.5,3.357-7.5,7.5s3.358,7.5,7.5,7.5h74.031c4.142,0,7.5-3.357,7.5-7.5    S201.644,274.55,197.502,274.55z" fill="#ffffff"/><path d="M197.502,300.6h-74.031c-4.142,0-7.5,3.357-7.5,7.5s3.358,7.5,7.5,7.5h74.031c4.142,0,7.5-3.357,7.5-7.5    S201.644,300.6,197.502,300.6z" fill="#ffffff"/><path d="M197.502,326.65h-74.031c-4.142,0-7.5,3.357-7.5,7.5s3.358,7.5,7.5,7.5h74.031c4.142,0,7.5-3.357,7.5-7.5    S201.644,326.65,197.502,326.65z" fill="#ffffff"/><path d="M197.502,352.7h-74.031c-4.142,0-7.5,3.357-7.5,7.5s3.358,7.5,7.5,7.5h74.031c4.142,0,7.5-3.357,7.5-7.5    S201.644,352.7,197.502,352.7z" fill="#ffffff"/><path d="M429.253,135.029H314.278c-4.143,0-7.5,3.357-7.5,7.5s3.357,7.5,7.5,7.5h114.975c4.143,0,7.5-3.357,7.5-7.5    S433.396,135.029,429.253,135.029z" fill="#ffffff"/><path d="M380.626,183.853h-61.308c-4.143,0-7.5,3.357-7.5,7.5v61.308c0,4.143,3.358,7.5,7.5,7.5h61.308c4.143,0,7.5-3.357,7.5-7.5    v-61.308C388.126,187.21,384.769,183.853,380.626,183.853z M373.126,245.162h-46.308v-46.308h46.308V245.162z" fill="#ffffff"/><path d="M473.704,183.853h-61.308c-4.143,0-7.5,3.357-7.5,7.5v61.308c0,4.143,3.357,7.5,7.5,7.5h61.308c4.143,0,7.5-3.357,7.5-7.5    v-61.308C481.204,187.21,477.847,183.853,473.704,183.853z M466.204,245.162h-46.308v-46.308h46.308V245.162z" fill="#ffffff"/><path d="M380.626,267.536h-61.308c-4.143,0-7.5,3.357-7.5,7.5s3.358,7.5,7.5,7.5h61.308c4.143,0,7.5-3.357,7.5-7.5    S384.769,267.536,380.626,267.536z" fill="#ffffff"/><path d="M380.626,291.486h-61.308c-4.143,0-7.5,3.357-7.5,7.5s3.358,7.5,7.5,7.5h61.308c4.143,0,7.5-3.357,7.5-7.5    S384.769,291.486,380.626,291.486z" fill="#ffffff"/><path d="M380.626,315.438h-61.308c-4.143,0-7.5,3.357-7.5,7.5s3.358,7.5,7.5,7.5h61.308c4.143,0,7.5-3.357,7.5-7.5    S384.769,315.438,380.626,315.438z" fill="#ffffff"/><path d="M370.226,349.362c-4.143,0-7.5,3.358-7.5,7.5v1.144c0,4.143,3.357,7.5,7.5,7.5s7.5-3.357,7.5-7.5v-1.144    C377.726,352.719,374.369,349.362,370.226,349.362z" fill="#ffffff"/><path d="M396.511,349.362c-4.143,0-7.5,3.357-7.5,7.5v1.144c0,4.143,3.357,7.5,7.5,7.5s7.5-3.358,7.5-7.5v-1.144    C404.011,352.719,400.654,349.362,396.511,349.362z" fill="#ffffff"/><path d="M422.796,349.362c-4.143,0-7.5,3.358-7.5,7.5v1.144c0,4.143,3.357,7.5,7.5,7.5s7.5-3.357,7.5-7.5v-1.144    C430.296,352.719,426.939,349.362,422.796,349.362z" fill="#ffffff"/><path d="M473.704,267.536h-61.308c-4.143,0-7.5,3.357-7.5,7.5s3.357,7.5,7.5,7.5h61.308c4.143,0,7.5-3.357,7.5-7.5    S477.847,267.536,473.704,267.536z" fill="#ffffff"/><path d="M473.704,291.486h-61.308c-4.143,0-7.5,3.357-7.5,7.5s3.357,7.5,7.5,7.5h61.308c4.143,0,7.5-3.357,7.5-7.5    S477.847,291.486,473.704,291.486z" fill="#ffffff"/><path d="M473.704,315.438h-61.308c-4.143,0-7.5,3.357-7.5,7.5s3.357,7.5,7.5,7.5h61.308c4.143,0,7.5-3.357,7.5-7.5    S477.847,315.438,473.704,315.438z" fill="#ffffff"/><path d="M270.292,250.696l-17.977-17.976c-2.929-2.928-7.678-2.928-10.606,0c-2.929,2.93-2.929,7.678,0,10.607L254.382,256    l-12.673,12.673c-2.929,2.93-2.929,7.678,0,10.607c1.464,1.464,3.384,2.196,5.303,2.196c1.919,0,3.839-0.732,5.303-2.196    l17.977-17.977C273.221,258.373,273.221,253.625,270.292,250.696z" fill="#ffffff"/></g><g transform="matrix(0.078125 0 0 0.078125 214.5 212.5)" id="L1_6"><path d="M374.75,0h-237.5c-19.181,0-34.786,15.605-34.786,34.786v314.238c0,4.142,3.358,7.5,7.5,7.5c4.142,0,7.5-3.358,7.5-7.5    V80.517h277.071v20.508c0,4.142,3.358,7.5,7.5,7.5c4.142,0,7.5-3.358,7.5-7.5V34.786C409.536,15.605,393.931,0,374.75,0z     M394.536,65.517H117.464v-30.73c0-10.91,8.876-19.786,19.786-19.786h237.5c10.91,0,19.786,8.876,19.786,19.786V65.517z" fill="#ffffff"/><path d="M402.036,124.142c-4.142,0-7.5,3.358-7.5,7.5v211.382c0,4.142,3.358,7.5,7.5,7.5c4.142,0,7.5-3.358,7.5-7.5V131.642    C409.536,127.5,406.178,124.142,402.036,124.142z" fill="#ffffff"/><path d="M402.036,366.142c-4.142,0-7.5,3.358-7.5,7.5v56.979H284.981V299.136c0-6.329-4.564-11.604-10.572-12.729l-0.208-6.313    c0.027-5.145,1.917-7.816,6.303-8.919c3.444-0.867,6.224-3.378,7.434-6.717c1.212-3.343,0.686-7.057-1.406-9.934l-22.803-31.357    c26.566,3.632,47.338,25.685,48.973,52.828c-6.841,2.958-11.644,9.767-11.644,17.681c0,10.619,8.639,19.258,19.258,19.258    c10.619,0,19.258-8.639,19.258-19.258c0-7.993-4.897-14.862-11.848-17.771c-1.056-21.655-11.757-40.808-27.878-53.279h38.224    c2.93,6.904,9.777,11.758,17.737,11.758c10.619,0,19.258-8.639,19.258-19.258c0-10.619-8.639-19.258-19.258-19.258    c-7.96,0-14.807,4.854-17.737,11.758H173.926c-2.93-6.903-9.777-11.758-17.737-11.758c-10.619,0-19.258,8.639-19.258,19.258    s8.639,19.258,19.258,19.258c7.96,0,14.807-4.855,17.737-11.758h38.224c-16.121,12.471-26.822,31.624-27.878,53.279    c-6.95,2.909-11.848,9.777-11.848,17.771c0,10.619,8.639,19.258,19.258,19.258c10.619,0,19.258-8.639,19.258-19.258    c0-7.914-4.802-14.724-11.644-17.681c1.594-26.452,21.363-48.068,46.957-52.514l-22.574,31.043    c-2.092,2.877-2.618,6.59-1.406,9.934c1.21,3.339,3.99,5.85,7.434,6.716c4.418,1.112,6.304,3.814,6.304,8.938l-0.086,6.723    c-5.165,1.707-8.906,6.571-8.906,12.301v131.485H117.464v-50.979c0-4.142-3.358-7.5-7.5-7.5c-4.142,0-7.5,3.358-7.5,7.5v97.572    c0,19.181,15.605,34.786,34.786,34.786h237.5c19.181,0,34.786-15.605,34.786-34.786V373.642    C409.536,369.5,406.178,366.142,402.036,366.142z M320.318,289.419c2.348,0,4.258,1.91,4.258,4.258    c0,2.348-1.91,4.258-4.258,4.258c-2.348,0-4.258-1.91-4.258-4.258C316.06,291.329,317.97,289.419,320.318,289.419z     M355.811,210.87c2.348,0,4.258,1.91,4.258,4.258s-1.91,4.258-4.258,4.258c-2.348,0-4.258-1.91-4.258-4.258    C351.553,212.78,353.463,210.87,355.811,210.87z M156.189,219.386c-2.348,0-4.258-1.91-4.258-4.258s1.91-4.258,4.258-4.258    c2.348,0,4.258,1.91,4.258,4.258C160.447,217.476,158.537,219.386,156.189,219.386z M191.682,297.935    c-2.348,0-4.258-1.91-4.258-4.258c0-2.348,1.91-4.258,4.258-4.258c2.348,0,4.258,1.91,4.258,4.258    C195.94,296.025,194.03,297.935,191.682,297.935z M255.106,236.812l16,22.001c-7.553,4.018-11.904,11.661-11.904,21.395    c0,0.082,0.001,0.165,0.004,0.247l0.188,5.722h-8.459l0.076-5.969c0-9.734-4.351-17.377-11.904-21.394L255.106,236.812z     M269.982,301.177v129.444h-27.963V301.177H269.982z M394.535,477.214C394.536,488.124,385.66,497,374.75,497h-237.5    c-10.91,0-19.786-8.876-19.786-19.786v-31.593h277.071V477.214z" fill="#ffffff"/><path d="M221.117,136.496c-4.142,0-7.5,3.358-7.5,7.5v1.518c0,4.142,3.358,7.5,7.5,7.5c4.142,0,7.5-3.358,7.5-7.5v-1.518    C228.617,139.854,225.259,136.496,221.117,136.496z" fill="#ffffff"/><path d="M256,136.496c-4.142,0-7.5,3.358-7.5,7.5v1.518c0,4.142,3.358,7.5,7.5,7.5c4.142,0,7.5-3.358,7.5-7.5v-1.518    C263.5,139.854,260.142,136.496,256,136.496z" fill="#ffffff"/><path d="M290.883,136.496c-4.142,0-7.5,3.358-7.5,7.5v1.518c0,4.142,3.358,7.5,7.5,7.5c4.142,0,7.5-3.358,7.5-7.5v-1.518    C298.383,139.854,295.025,136.496,290.883,136.496z" fill="#ffffff"/><path d="M266.793,32.758H190.86c-4.142,0-7.5,3.358-7.5,7.5c0,4.142,3.358,7.5,7.5,7.5h75.933c4.142,0,7.5-3.358,7.5-7.5    C274.293,36.116,270.936,32.758,266.793,32.758z" fill="#ffffff"/><path d="M321.14,32c-4.142,0-7.5,3.358-7.5,7.5v1.518c0,4.142,3.358,7.5,7.5,7.5c4.142,0,7.5-3.358,7.5-7.5V39.5    C328.64,35.357,325.282,32,321.14,32z" fill="#ffffff"/><path d="M300.278,32c-4.142,0-7.5,3.358-7.5,7.5v1.518c0,4.142,3.358,7.5,7.5,7.5c4.142,0,7.5-3.358,7.5-7.5V39.5    C307.778,35.357,304.42,32,300.278,32z" fill="#ffffff"/><path d="M277.481,463.811h-42.963c-4.142,0-7.5,3.358-7.5,7.5c0,4.142,3.358,7.5,7.5,7.5h42.963c4.142,0,7.5-3.358,7.5-7.5    C284.981,467.169,281.624,463.811,277.481,463.811z" fill="#ffffff"/></g><g transform="matrix(-0.12187782016059884 0.014509264709381972 0.014509264709381972 0.12187782016059884 98.86694106517757 4.592282137745734)" id="L1_7"><path d="M467.677,24.755h-313.37c-4.142,0-7.5,3.357-7.5,7.5c0,4.143,3.358,7.5,7.5,7.5h313.37    c16.168,0,29.321,13.153,29.321,29.321v254.807H285.997v-209.74l48.519-16.875c3.912-1.361,5.98-5.636,4.62-9.548l-10.737-30.87    c-0.654-1.879-2.027-3.421-3.817-4.287c-1.791-0.867-3.851-0.986-5.73-0.333L50.876,145.435c-1.879,0.653-3.421,2.026-4.287,3.817    c-0.867,1.79-0.986,3.852-0.333,5.73l10.736,30.869c1.077,3.097,3.98,5.038,7.084,5.038c0.817,0,1.648-0.135,2.464-0.418    l32.852-11.426v144.837H15V69.076c0-16.168,13.153-29.321,29.321-29.321h79.368c4.142,0,7.5-3.357,7.5-7.5    c0-4.143-3.358-7.5-7.5-7.5H44.321C19.882,24.755,0,44.638,0,69.076v314.87c0,13.119,10.673,23.792,23.792,23.792h164.513    c-4.905,16.637-14.717,37.086-34.353,51.987c-5.323,4.039-7.385,10.743-5.253,17.078c2.134,6.343,7.837,10.441,14.527,10.441    h47.13c4.142,0,7.5-3.357,7.5-7.5s-3.358-7.5-7.5-7.5h-47.13c-0.132,0-0.187-0.02-0.188-0.02c-0.09-0.063-0.181-0.325-0.154-0.423    c0-0.001,0.03-0.048,0.136-0.128c24.526-18.613,35.734-44.324,40.854-63.937h104.249c5.199,19.957,16.465,45.427,40.856,63.937    c0.097,0.073,0.13,0.119,0.132,0.119c0.03,0.108-0.061,0.37-0.146,0.43c-0.001,0-0.054,0.021-0.192,0.021H240.974    c-4.142,0-7.5,3.357-7.5,7.5s3.358,7.5,7.5,7.5h107.798c6.691,0,12.393-4.099,14.527-10.441    c2.131-6.335,0.069-13.039-5.253-17.078c-19.549-14.835-29.399-35.122-34.359-51.987h69.336c4.142,0,7.5-3.357,7.5-7.5    s-3.358-7.5-7.5-7.5H23.792c-4.848,0-8.792-3.944-8.792-8.792v-45.063h481.998v45.063c0,4.848-3.944,8.792-8.792,8.792H423.64    c-4.142,0-7.5,3.357-7.5,7.5s3.358,7.5,7.5,7.5h64.566c13.119,0,23.792-10.673,23.792-23.792V69.076    C511.998,44.638,492.116,24.755,467.677,24.755z M68.697,173.84l-5.81-16.701l253.808-88.278l5.81,16.702L68.697,173.84z     M219.888,323.882h-54.385v-68.754h54.385V323.882z M270.997,323.882h-36.109v-76.254c0-4.143-3.358-7.5-7.5-7.5h-69.385    c-4.142,0-7.5,3.357-7.5,7.5v76.254h-36.111c0,0,0-150.054,0-150.054l156.605-54.469V323.882z" fill="#ffffff"/><path d="M255.999,347.137c-10.296,0-18.673,8.377-18.673,18.674c0,10.296,8.377,18.673,18.673,18.673s18.673-8.377,18.673-18.673    C274.672,355.514,266.295,347.137,255.999,347.137z M255.999,369.483c-2.025,0-3.673-1.647-3.673-3.673s1.648-3.674,3.673-3.674    c2.025,0,3.673,1.648,3.673,3.674C259.672,367.835,258.024,369.483,255.999,369.483z" fill="#ffffff"/><path d="M353.926,214.321c-4.142,0-7.5,3.357-7.5,7.5v1.526c0,4.143,3.358,7.5,7.5,7.5c4.142,0,7.5-3.357,7.5-7.5v-1.526    C361.426,217.678,358.068,214.321,353.926,214.321z" fill="#ffffff"/><path d="M377.562,214.321c-4.142,0-7.5,3.357-7.5,7.5v1.526c0,4.143,3.358,7.5,7.5,7.5c4.142,0,7.5-3.358,7.5-7.5v-1.526    C385.062,217.678,381.704,214.321,377.562,214.321z" fill="#ffffff"/><path d="M389.636,243.535h-35.54c-4.142,0-7.5,3.357-7.5,7.5s3.358,7.5,7.5,7.5h35.54c4.142,0,7.5-3.357,7.5-7.5    S393.778,243.535,389.636,243.535z" fill="#ffffff"/><path d="M438.817,265.939h-84.721c-4.142,0-7.5,3.357-7.5,7.5s3.358,7.5,7.5,7.5h84.721c4.142,0,7.5-3.357,7.5-7.5    S442.959,265.939,438.817,265.939z" fill="#ffffff"/><path d="M210.894,172.408h-36.395c-4.142,0-7.5,3.357-7.5,7.5v36.395c0,4.142,3.357,7.5,7.5,7.5h36.395c4.142,0,7.5-3.357,7.5-7.5    v-36.395C218.394,175.764,215.036,172.408,210.894,172.408z M203.394,208.803h-21.395v-21.395h21.395V208.803z" fill="#ffffff"/><path d="M368.818,138.824c-12.347,0-22.392,10.045-22.392,22.392s10.045,22.392,22.392,22.392s22.392-10.045,22.392-22.392    S381.165,138.824,368.818,138.824z M368.818,168.608c-4.076,0-7.392-3.315-7.392-7.392c0-4.077,3.316-7.392,7.392-7.392    s7.392,3.315,7.392,7.392C376.21,165.293,372.894,168.608,368.818,168.608z" fill="#ffffff"/></g><g transform="matrix(0.012517344788076173 -0.09700942897352068 0.09700942897352068 0.012517344788076173 146.96114591703122 283.12997355147377)" id="L1_8"><path d="M484.322,64.74H308.698c-15.261,0-27.677,12.416-27.677,27.678v251.273c0,4.143,3.357,7.5,7.5,7.5s7.5-3.357,7.5-7.5    V171.87H497v211.304H296.021v-8.865c0-4.143-3.357-7.5-7.5-7.5s-7.5,3.357-7.5,7.5v45.273c0,15.262,12.416,27.678,27.677,27.678    h175.624c15.262,0,27.678-12.416,27.678-27.678V92.418C512,77.156,499.584,64.74,484.322,64.74z M497,419.582    c0,6.99-5.687,12.678-12.678,12.678H308.698c-6.99,0-12.677-5.688-12.677-12.678v-21.408H497V419.582z M497,156.87H296.021    v-28.682H497V156.87z M497,113.189H296.021V92.418c0-6.99,5.687-12.678,12.677-12.678h175.624c6.99,0,12.678,5.688,12.678,12.678    V113.189z" fill="#ffffff"/><path d="M404.492,88.965h-56.15c-4.143,0-7.5,3.357-7.5,7.5c0,4.143,3.357,7.5,7.5,7.5h56.15c4.143,0,7.5-3.357,7.5-7.5    C411.992,92.322,408.635,88.965,404.492,88.965z" fill="#ffffff"/><path d="M448.778,88.403c-4.143,0-7.5,3.357-7.5,7.5v1.123c0,4.143,3.358,7.5,7.5,7.5c4.143,0,7.5-3.357,7.5-7.5v-1.123    C456.278,91.76,452.921,88.403,448.778,88.403z" fill="#ffffff"/><path d="M429.253,88.403c-4.143,0-7.5,3.357-7.5,7.5v1.123c0,4.143,3.357,7.5,7.5,7.5s7.5-3.357,7.5-7.5v-1.123    C436.753,91.76,433.396,88.403,429.253,88.403z" fill="#ffffff"/><path d="M412.396,407.717h-31.77c-4.143,0-7.5,3.357-7.5,7.5s3.357,7.5,7.5,7.5h31.77c4.143,0,7.5-3.357,7.5-7.5    S416.538,407.717,412.396,407.717z" fill="#ffffff"/><path d="M203.302,64.74H27.677C12.416,64.74,0,77.156,0,92.418v159.273c0,4.143,3.358,7.5,7.5,7.5s7.5-3.357,7.5-7.5V128.188    h200.979v254.985H15V282.309c0-4.143-3.358-7.5-7.5-7.5s-7.5,3.357-7.5,7.5v137.273c0,15.262,12.416,27.678,27.677,27.678h175.625    c15.261,0,27.677-12.416,27.677-27.678V92.418C230.979,77.156,218.563,64.74,203.302,64.74z M215.979,419.582    c0,6.99-5.687,12.678-12.677,12.678H27.677c-6.99,0-12.677-5.688-12.677-12.678v-21.408h200.979V419.582z M215.979,113.189H15    v-0.001v-20.77c0-6.99,5.687-12.678,12.677-12.678h175.625c6.99,0,12.677,5.688,12.677,12.678V113.189z" fill="#ffffff"/><path d="M123.471,88.965H67.32c-4.142,0-7.5,3.357-7.5,7.5c0,4.143,3.358,7.5,7.5,7.5h56.15c4.142,0,7.5-3.357,7.5-7.5    C130.97,92.322,127.613,88.965,123.471,88.965z" fill="#ffffff"/><path d="M167.757,88.403c-4.142,0-7.5,3.357-7.5,7.5v1.123c0,4.143,3.358,7.5,7.5,7.5c4.142,0,7.5-3.357,7.5-7.5v-1.123    C175.257,91.761,171.899,88.403,167.757,88.403z" fill="#ffffff"/><path d="M148.232,88.403c-4.142,0-7.5,3.357-7.5,7.5v1.123c0,4.143,3.358,7.5,7.5,7.5c4.142,0,7.5-3.357,7.5-7.5v-1.123    C155.732,91.761,152.374,88.403,148.232,88.403z" fill="#ffffff"/><path d="M131.375,407.717h-31.77c-4.142,0-7.5,3.357-7.5,7.5s3.358,7.5,7.5,7.5h31.77c4.142,0,7.5-3.357,7.5-7.5    S135.517,407.717,131.375,407.717z" fill="#ffffff"/><path d="M197.464,173.266h-25.155c-4.142,0-7.5,3.357-7.5,7.5s3.358,7.5,7.5,7.5h17.655v34.185H41.015v-34.185h100.676    c4.142,0,7.5-3.357,7.5-7.5s-3.358-7.5-7.5-7.5H33.515c-4.142,0-7.5,3.357-7.5,7.5v49.185c0,4.143,3.358,7.5,7.5,7.5h163.949    c4.142,0,7.5-3.357,7.5-7.5v-49.185C204.964,176.623,201.606,173.266,197.464,173.266z" fill="#ffffff"/><path d="M95.396,248.5h-59.49c-4.142,0-7.5,3.357-7.5,7.5s3.358,7.5,7.5,7.5h59.489c4.142,0,7.5-3.357,7.5-7.5    S99.538,248.5,95.396,248.5z" fill="#ffffff"/><path d="M95.396,274.55h-59.49c-4.142,0-7.5,3.357-7.5,7.5s3.358,7.5,7.5,7.5h59.489c4.142,0,7.5-3.357,7.5-7.5    S99.538,274.55,95.396,274.55z" fill="#ffffff"/><path d="M95.396,300.6h-59.49c-4.142,0-7.5,3.357-7.5,7.5s3.358,7.5,7.5,7.5h59.489c4.142,0,7.5-3.357,7.5-7.5    S99.538,300.6,95.396,300.6z" fill="#ffffff"/><path d="M95.396,326.65h-59.49c-4.142,0-7.5,3.357-7.5,7.5s3.358,7.5,7.5,7.5h59.489c4.142,0,7.5-3.357,7.5-7.5    S99.538,326.65,95.396,326.65z" fill="#ffffff"/><path d="M95.396,352.7h-59.49c-4.142,0-7.5,3.357-7.5,7.5s3.358,7.5,7.5,7.5h59.489c4.142,0,7.5-3.357,7.5-7.5    S99.538,352.7,95.396,352.7z" fill="#ffffff"/><path d="M95.396,145.258h-59.49c-4.142,0-7.5,3.357-7.5,7.5s3.358,7.5,7.5,7.5h59.49c4.142,0,7.5-3.357,7.5-7.5    S99.538,145.258,95.396,145.258z" fill="#ffffff"/><path d="M197.502,248.5h-74.031c-4.142,0-7.5,3.357-7.5,7.5s3.358,7.5,7.5,7.5h74.031c4.142,0,7.5-3.357,7.5-7.5    S201.644,248.5,197.502,248.5z" fill="#ffffff"/><path d="M197.502,274.55h-74.031c-4.142,0-7.5,3.357-7.5,7.5s3.358,7.5,7.5,7.5h74.031c4.142,0,7.5-3.357,7.5-7.5    S201.644,274.55,197.502,274.55z" fill="#ffffff"/><path d="M197.502,300.6h-74.031c-4.142,0-7.5,3.357-7.5,7.5s3.358,7.5,7.5,7.5h74.031c4.142,0,7.5-3.357,7.5-7.5    S201.644,300.6,197.502,300.6z" fill="#ffffff"/><path d="M197.502,326.65h-74.031c-4.142,0-7.5,3.357-7.5,7.5s3.358,7.5,7.5,7.5h74.031c4.142,0,7.5-3.357,7.5-7.5    S201.644,326.65,197.502,326.65z" fill="#ffffff"/><path d="M197.502,352.7h-74.031c-4.142,0-7.5,3.357-7.5,7.5s3.358,7.5,7.5,7.5h74.031c4.142,0,7.5-3.357,7.5-7.5    S201.644,352.7,197.502,352.7z" fill="#ffffff"/><path d="M429.253,135.029H314.278c-4.143,0-7.5,3.357-7.5,7.5s3.357,7.5,7.5,7.5h114.975c4.143,0,7.5-3.357,7.5-7.5    S433.396,135.029,429.253,135.029z" fill="#ffffff"/><path d="M380.626,183.853h-61.308c-4.143,0-7.5,3.357-7.5,7.5v61.308c0,4.143,3.358,7.5,7.5,7.5h61.308c4.143,0,7.5-3.357,7.5-7.5    v-61.308C388.126,187.21,384.769,183.853,380.626,183.853z M373.126,245.162h-46.308v-46.308h46.308V245.162z" fill="#ffffff"/><path d="M473.704,183.853h-61.308c-4.143,0-7.5,3.357-7.5,7.5v61.308c0,4.143,3.357,7.5,7.5,7.5h61.308c4.143,0,7.5-3.357,7.5-7.5    v-61.308C481.204,187.21,477.847,183.853,473.704,183.853z M466.204,245.162h-46.308v-46.308h46.308V245.162z" fill="#ffffff"/><path d="M380.626,267.536h-61.308c-4.143,0-7.5,3.357-7.5,7.5s3.358,7.5,7.5,7.5h61.308c4.143,0,7.5-3.357,7.5-7.5    S384.769,267.536,380.626,267.536z" fill="#ffffff"/><path d="M380.626,291.486h-61.308c-4.143,0-7.5,3.357-7.5,7.5s3.358,7.5,7.5,7.5h61.308c4.143,0,7.5-3.357,7.5-7.5    S384.769,291.486,380.626,291.486z" fill="#ffffff"/><path d="M380.626,315.438h-61.308c-4.143,0-7.5,3.357-7.5,7.5s3.358,7.5,7.5,7.5h61.308c4.143,0,7.5-3.357,7.5-7.5    S384.769,315.438,380.626,315.438z" fill="#ffffff"/><path d="M370.226,349.362c-4.143,0-7.5,3.358-7.5,7.5v1.144c0,4.143,3.357,7.5,7.5,7.5s7.5-3.357,7.5-7.5v-1.144    C377.726,352.719,374.369,349.362,370.226,349.362z" fill="#ffffff"/><path d="M396.511,349.362c-4.143,0-7.5,3.357-7.5,7.5v1.144c0,4.143,3.357,7.5,7.5,7.5s7.5-3.358,7.5-7.5v-1.144    C404.011,352.719,400.654,349.362,396.511,349.362z" fill="#ffffff"/><path d="M422.796,349.362c-4.143,0-7.5,3.358-7.5,7.5v1.144c0,4.143,3.357,7.5,7.5,7.5s7.5-3.357,7.5-7.5v-1.144    C430.296,352.719,426.939,349.362,422.796,349.362z" fill="#ffffff"/><path d="M473.704,267.536h-61.308c-4.143,0-7.5,3.357-7.5,7.5s3.357,7.5,7.5,7.5h61.308c4.143,0,7.5-3.357,7.5-7.5    S477.847,267.536,473.704,267.536z" fill="#ffffff"/><path d="M473.704,291.486h-61.308c-4.143,0-7.5,3.357-7.5,7.5s3.357,7.5,7.5,7.5h61.308c4.143,0,7.5-3.357,7.5-7.5    S477.847,291.486,473.704,291.486z" fill="#ffffff"/><path d="M473.704,315.438h-61.308c-4.143,0-7.5,3.357-7.5,7.5s3.357,7.5,7.5,7.5h61.308c4.143,0,7.5-3.357,7.5-7.5    S477.847,315.438,473.704,315.438z" fill="#ffffff"/><path d="M270.292,250.696l-17.977-17.976c-2.929-2.928-7.678-2.928-10.606,0c-2.929,2.93-2.929,7.678,0,10.607L254.382,256    l-12.673,12.673c-2.929,2.93-2.929,7.678,0,10.607c1.464,1.464,3.384,2.196,5.303,2.196c1.919,0,3.839-0.732,5.303-2.196    l17.977-17.977C273.221,258.373,273.221,253.625,270.292,250.696z" fill="#ffffff"/></g><path d="M165,0C74.019,0,0,74.019,0,165s74.019,165,165,165c90.982,0,165-74.019,165-165S255.982,0,165,0z" transform="matrix(0.012856487184762955 0 0 0.012856487184762955 -2.1213202364742756 85.37867976352572)" id="L1_10" fill="#ffffff"/><path d="M165,0C74.019,0,0,74.019,0,165s74.019,165,165,165c90.982,0,165-74.019,165-165S255.982,0,165,0z" transform="matrix(-0.03030303120613098 0 0 0.03030303120613098 92.50000029802322 258.5)" id="L1_11" fill="#ffffff"/></defs><g fi:class="KUsePattern"><pattern id="pattern_L1_3" width="350" height="350" patternUnits="userSpaceOnUse"><use xlink:href="#L1_3" x="-350" y="-350"/><use xlink:href="#L1_3" x="0" y="-350"/><use xlink:href="#L1_3" x="350" y="-350"/><use xlink:href="#L1_3" x="-350" y="0"/><use xlink:href="#L1_3" x="0" y="0"/><use xlink:href="#L1_3" x="350" y="0"/><use xlink:href="#L1_3" x="-350" y="350"/><use xlink:href="#L1_3" x="0" y="350"/><use xlink:href="#L1_3" x="350" y="350"/></pattern><rect x="0" y="0" width="100%" height="100%" fill="url(#pattern_L1_3)"/></g><g fi:class="KUsePattern"><pattern id="pattern_L1_4" width="350" height="350" patternUnits="userSpaceOnUse"><use xlink:href="#L1_4" x="-350" y="-350"/><use xlink:href="#L1_4" x="0" y="-350"/><use xlink:href="#L1_4" x="350" y="-350"/><use xlink:href="#L1_4" x="-350" y="0"/><use xlink:href="#L1_4" x="0" y="0"/><use xlink:href="#L1_4" x="350" y="0"/><use xlink:href="#L1_4" x="-350" y="350"/><use xlink:href="#L1_4" x="0" y="350"/><use xlink:href="#L1_4" x="350" y="350"/></pattern><rect x="0" y="0" width="100%" height="100%" fill="url(#pattern_L1_4)"/></g><g fi:class="KUsePattern" opacity="0.47"><pattern id="pattern_L1_5" width="350" height="350" patternUnits="userSpaceOnUse"><use xlink:href="#L1_5" x="-350" y="-350"/><use xlink:href="#L1_5" x="0" y="-350"/><use xlink:href="#L1_5" x="350" y="-350"/><use xlink:href="#L1_5" x="-350" y="0"/><use xlink:href="#L1_5" x="0" y="0"/><use xlink:href="#L1_5" x="350" y="0"/><use xlink:href="#L1_5" x="-350" y="350"/><use xlink:href="#L1_5" x="0" y="350"/><use xlink:href="#L1_5" x="350" y="350"/></pattern><rect x="0" y="0" width="100%" height="100%" fill="url(#pattern_L1_5)"/></g><g fi:class="KUsePattern"><pattern id="pattern_L1_6" width="350" height="350" patternUnits="userSpaceOnUse"><use xlink:href="#L1_6" x="-350" y="-350"/><use xlink:href="#L1_6" x="0" y="-350"/><use xlink:href="#L1_6" x="350" y="-350"/><use xlink:href="#L1_6" x="-350" y="0"/><use xlink:href="#L1_6" x="0" y="0"/><use xlink:href="#L1_6" x="350" y="0"/><use xlink:href="#L1_6" x="-350" y="350"/><use xlink:href="#L1_6" x="0" y="350"/><use xlink:href="#L1_6" x="350" y="350"/></pattern><rect x="0" y="0" width="100%" height="100%" fill="url(#pattern_L1_6)"/></g><g fi:class="KUsePattern"><pattern id="pattern_L1_7" width="350" height="350" patternUnits="userSpaceOnUse"><use xlink:href="#L1_7" x="-350" y="-350"/><use xlink:href="#L1_7" x="0" y="-350"/><use xlink:href="#L1_7" x="350" y="-350"/><use xlink:href="#L1_7" x="-350" y="0"/><use xlink:href="#L1_7" x="0" y="0"/><use xlink:href="#L1_7" x="350" y="0"/><use xlink:href="#L1_7" x="-350" y="350"/><use xlink:href="#L1_7" x="0" y="350"/><use xlink:href="#L1_7" x="350" y="350"/></pattern><rect x="0" y="0" width="100%" height="100%" fill="url(#pattern_L1_7)"/></g><g fi:class="KUsePattern"><pattern id="pattern_L1_8" width="350" height="350" patternUnits="userSpaceOnUse"><use xlink:href="#L1_8" x="-350" y="-350"/><use xlink:href="#L1_8" x="0" y="-350"/><use xlink:href="#L1_8" x="350" y="-350"/><use xlink:href="#L1_8" x="-350" y="0"/><use xlink:href="#L1_8" x="0" y="0"/><use xlink:href="#L1_8" x="350" y="0"/><use xlink:href="#L1_8" x="-350" y="350"/><use xlink:href="#L1_8" x="0" y="350"/><use xlink:href="#L1_8" x="350" y="350"/></pattern><rect x="0" y="0" width="100%" height="100%" fill="url(#pattern_L1_8)"/></g><g fi:class="KUsePattern"><pattern id="pattern_L1_10" width="350" height="350" patternUnits="userSpaceOnUse"><use xlink:href="#L1_10" x="-350" y="-350"/><use xlink:href="#L1_10" x="0" y="-350"/><use xlink:href="#L1_10" x="350" y="-350"/><use xlink:href="#L1_10" x="-350" y="0"/><use xlink:href="#L1_10" x="0" y="0"/><use xlink:href="#L1_10" x="350" y="0"/><use xlink:href="#L1_10" x="-350" y="350"/><use xlink:href="#L1_10" x="0" y="350"/><use xlink:href="#L1_10" x="350" y="350"/></pattern><rect x="0" y="0" width="100%" height="100%" fill="url(#pattern_L1_10)"/></g><g fi:class="KUsePattern"><pattern id="pattern_L1_11" width="350" height="350" patternUnits="userSpaceOnUse"><use xlink:href="#L1_11" x="-350" y="-350"/><use xlink:href="#L1_11" x="0" y="-350"/><use xlink:href="#L1_11" x="350" y="-350"/><use xlink:href="#L1_11" x="-350" y="0"/><use xlink:href="#L1_11" x="0" y="0"/><use xlink:href="#L1_11" x="350" y="0"/><use xlink:href="#L1_11" x="-350" y="350"/><use xlink:href="#L1_11" x="0" y="350"/><use xlink:href="#L1_11" x="350" y="350"/></pattern><rect x="0" y="0" width="100%" height="100%" fill="url(#pattern_L1_11)"/></g></svg>